<?xml version="1.0" encoding="UTF-8"?>
<svg id="Layer_2" data-name="Layer 2" xmlns="http://www.w3.org/2000/svg" viewBox="0 0 149.9 32.72">
  <defs>
    <style>
      .cls-1 {
        fill: #b45a14;
      }

      .cls-1, .cls-2 {
        stroke-width: 0px;
      }

      .cls-2 {
        fill: #fff;
      }
    </style>
  </defs>
  <g id="Layer_1-2" data-name="Layer 1">
    <g>
      <g>
        <path class="cls-2" d="m0,5.68h7.77l4.63,15.36,5.12-15.43h6.33l5.12,15.43,4.63-15.36h7.62l-8.87,26.73h-6.41l-5.35-15.28-5.31,15.28h-6.41L0,5.68Z"/>
        <path class="cls-2" d="m40.34,22.06v-.08c0-5.84,4.78-10.73,11.38-10.73s11.3,4.82,11.3,10.66v.08c0,5.84-4.78,10.73-11.38,10.73s-11.3-4.82-11.3-10.66Zm15.66,0v-.08c0-2.5-1.82-4.62-4.36-4.62s-4.29,2.08-4.29,4.55v.08c0,2.5,1.82,4.63,4.36,4.63s4.29-2.08,4.29-4.55Z"/>
        <path class="cls-2" d="m66.05,11.71h7.21v4.13c1.17-2.81,3.07-4.63,6.48-4.47v7.58h-.61c-3.75,0-5.88,2.16-5.88,6.9v6.37h-7.21V11.71Z"/>
        <path class="cls-2" d="m81.14,22.06v-.08c0-6.67,4.17-10.73,9.02-10.73,3.11,0,4.93,1.4,6.29,2.96V4.55h7.21v27.68h-7.21v-2.73c-1.4,1.71-3.18,3.19-6.26,3.19-4.85,0-9.06-4.06-9.06-10.62Zm15.43-.08v-.08c0-2.69-1.86-4.63-4.17-4.63s-4.21,1.9-4.21,4.63v.08c0,2.73,1.9,4.66,4.21,4.66s4.17-1.93,4.17-4.66Z"/>
        <path class="cls-2" d="m107.67,4.55h7.2v27.68h-7.2V4.55Z"/>
        <path class="cls-2" d="m118.06,22.06v-.08c0-5.99,4.29-10.73,10.35-10.73,7.09,0,10.35,5.2,10.35,11.22,0,.46,0,.99-.04,1.48h-13.73c.57,2.24,2.2,3.38,4.44,3.38,1.71,0,3.07-.64,4.55-2.08l3.98,3.3c-1.97,2.5-4.82,4.17-8.91,4.17-6.45,0-11-4.29-11-10.66Zm13.95-1.78c-.27-2.27-1.59-3.72-3.56-3.72s-3.19,1.48-3.56,3.72h7.13Z"/>
      </g>
      <circle class="cls-1" cx="145.4" cy="4.5" r="4.5"/>
    </g>
  </g>
</svg>