<?xml version="1.0" encoding="UTF-8"?>
<svg id="Layer_2" data-name="Layer 2" xmlns="http://www.w3.org/2000/svg" viewBox="0 0 40 40">
  <defs>
    <style>
      .cls-1 {
        fill: #b45a14;
        stroke-width: 0px;
      }
    </style>
  </defs>
  <g id="Layer_1-2" data-name="Layer 1">
    <g>
      <path class="cls-1" d="m18.88,40c5.75-3.53,7.2-9.04,7.37-15.34-1.68,0-3.28.03-4.88-.02-.42-.01-1.13-.16-1.18-.38-.09-.39.09-.96.36-1.3,2.81-3.63,5.65-7.24,8.5-10.85.89-1.13,1.26-1.12,2.17.04,2.84,3.61,5.68,7.22,8.5,10.85.22.28.38.85.24,1.09-.18.3-.7.54-1.09.55-1.58.06-3.16.03-4.83.03-.25,5.06-1.85,9.45-6.03,12.59-2.67,2-5.74,2.82-9.12,2.75Z"/>
      <path class="cls-1" d="m5.96,15.4C6.97,5.54,13.2-.73,21.32.07c-2.75,1.64-4.73,3.75-5.92,6.54-1.18,2.76-1.55,5.66-1.64,8.7.29.03.53.08.78.08,1.42,0,2.84-.03,4.26.03.36.02.86.24,1.03.53.13.23-.05.77-.26,1.04-2.57,3.32-5.18,6.62-7.77,9.92-.32.41-.65.83-.98,1.24-.73.91-1.11.92-1.84-.01-2.7-3.43-5.4-6.86-8.09-10.3-.2-.26-.47-.49-.59-.78-.16-.38-.38-.87-.27-1.21.08-.24.67-.42,1.04-.43,1.61-.05,3.22-.02,4.89-.02Z"/>
    </g>
  </g>
</svg>